<svg version="1.1" id="Layer_1" xmlns="http://www.w3.org/2000/svg" xmlns:xlink="http://www.w3.org/1999/xlink" x="0px" y="0px"
	 width="100%" viewBox="0 0 782 784" enable-background="new 0 0 782 784" xml:space="preserve">
<path fill="#FCFAF6" opacity="1.000000" stroke="none" 
	d="
M514.000000,785.000000 
	C342.666656,785.000000 171.833328,785.000000 1.000000,785.000000 
	C1.000000,523.666687 1.000000,262.333344 1.000000,1.000000 
	C261.666656,1.000000 522.333313,1.000000 783.000000,1.000000 
	C783.000000,262.333344 783.000000,523.666687 783.000000,785.000000 
	C693.500000,785.000000 604.000000,785.000000 514.000000,785.000000 
M585.875732,509.101746 
	C585.875732,509.101746 585.753906,509.172913 585.921875,509.732483 
	C586.218872,509.976654 586.515930,510.220825 586.906799,510.795105 
	C587.015930,511.011505 587.185303,511.158478 587.686157,511.874847 
	C589.109131,513.615662 590.532043,515.356506 592.091003,517.526978 
	C592.257996,517.789612 592.485352,517.980164 592.957520,518.616211 
	C593.258057,518.812012 593.558655,519.007874 593.888123,519.110229 
	C593.888123,519.110229 593.792725,519.132080 593.974915,519.697571 
	C594.248291,519.973816 594.521667,520.250061 594.925537,520.992249 
	C595.245117,521.345276 595.564697,521.698303 596.166321,522.801697 
	C599.564880,523.268372 602.963440,523.735046 606.583191,524.232117 
	C606.583191,501.535950 606.583191,479.974579 606.583191,458.023987 
	C604.227661,458.023987 602.116028,458.023987 599.255188,457.939056 
	C598.502869,457.966370 597.750549,457.993652 596.375183,457.940308 
	C595.984375,458.303711 595.593567,458.667114 595.110229,459.959351 
	C595.166687,473.311493 595.223206,486.663635 595.159790,500.499176 
	C595.159790,500.499176 595.303040,500.976135 595.094238,501.861023 
	C595.016785,502.154022 594.939392,502.447052 594.388306,502.328156 
	C594.043396,502.105988 593.698425,501.883789 593.054565,501.880524 
	C593.054565,501.880524 593.357117,501.653107 593.172546,501.016296 
	C591.873962,499.486572 590.575317,497.956818 589.107056,495.975891 
	C588.781677,495.631378 588.456299,495.286865 587.948425,494.337524 
	C587.368347,493.741547 586.788269,493.145569 586.099548,492.218323 
	C585.983765,492.000244 585.807373,491.856506 585.310730,491.228485 
	C584.901184,490.785187 584.491577,490.341888 584.025452,489.998474 
	C584.025452,489.998474 584.110901,489.921814 583.944885,489.294617 
	C583.039062,488.363525 582.133240,487.432434 581.051514,485.965637 
	C580.431641,485.280182 579.811768,484.594727 578.982666,483.305389 
	C578.406616,482.684204 577.830627,482.062988 577.199463,481.176697 
	C577.199463,481.176697 576.992615,481.001953 576.807800,480.442627 
	C576.256287,479.906006 575.704834,479.369385 575.065735,479.011322 
	C575.065735,479.011322 575.178101,478.846771 574.989075,478.302063 
	C574.471619,477.762177 573.954224,477.222260 573.368225,476.681763 
	C573.368225,476.681763 573.353821,476.614807 573.253357,476.201080 
	C573.132202,475.921631 572.924255,475.743561 572.548645,475.518066 
	C572.548645,475.518066 572.432068,475.395142 572.238159,474.917206 
	C571.858887,474.572205 571.479553,474.227203 571.035400,473.998718 
	C571.035400,473.998718 571.129822,473.904480 570.974792,473.340332 
	C570.453064,472.789734 569.931396,472.239136 569.365234,471.884979 
	C569.365234,471.884979 569.358337,471.683716 569.205322,471.141571 
	C568.807678,470.754883 568.410034,470.368225 568.000000,470.000000 
	C568.000000,470.000000 568.018555,469.989014 567.855957,469.418243 
	C567.320129,468.865326 566.784241,468.312408 566.046997,467.785217 
	C566.046997,467.785217 566.249451,467.800476 566.095947,467.304047 
	C565.818726,467.111237 565.541565,466.918396 565.036621,466.855988 
	C565.036621,466.855988 565.283508,466.767059 565.105164,466.208374 
	C564.807373,465.962372 564.509521,465.716370 564.011536,464.870209 
	C562.377625,462.928497 560.743652,460.986755 558.656311,458.309906 
	C555.751526,458.309906 552.846741,458.309906 549.940796,458.309906 
	C549.940796,480.200226 549.940796,501.785736 549.940796,523.364746 
	C553.752563,523.364746 557.295166,523.364746 560.856201,523.364746 
	C560.856201,508.682831 560.856201,494.376495 561.068604,479.589142 
	C561.597351,479.772339 562.126099,479.955536 562.903748,480.708740 
	C563.206299,480.986145 563.508850,481.263550 563.845886,481.811188 
	C563.845886,481.811188 564.048706,481.993164 564.234009,482.545410 
	C564.773132,483.084381 565.312256,483.623322 565.931641,483.990356 
	C565.931641,483.990356 565.824524,484.147217 565.999512,484.696442 
	C566.515381,485.237762 567.031311,485.779053 567.659546,486.174255 
	C567.659546,486.174255 567.609070,486.351532 567.742981,486.910187 
	C568.135803,487.306183 568.528687,487.702209 568.978638,488.000763 
	C568.978638,488.000763 568.895020,488.076813 569.104004,488.657684 
	C569.902466,489.549866 570.700867,490.442047 571.569702,491.328461 
	C571.569702,491.328461 571.610657,491.385925 571.771423,491.919495 
	C572.160706,492.305756 572.549927,492.692017 572.991943,493.002869 
	C572.991943,493.002869 572.916748,493.056030 573.069641,493.626831 
	C573.603027,494.178345 574.136414,494.729858 574.664246,495.097687 
	C574.664246,495.097687 574.702942,495.276764 574.847961,495.757355 
	C575.114441,495.943695 575.380920,496.130035 575.765503,496.146667 
	C575.765503,496.146667 575.634888,496.324127 575.782349,496.872467 
	C576.159119,497.282806 576.535889,497.693146 576.974731,498.000702 
	C576.974731,498.000702 576.885559,498.081207 577.031494,498.657410 
	C577.587585,499.194244 578.143616,499.731079 578.783752,500.258270 
	C578.783752,500.258270 578.713989,500.250763 578.843445,500.734314 
	C579.099426,500.930908 579.355469,501.127502 579.833435,501.294220 
	C579.833435,501.294220 579.627258,501.381744 579.808838,501.985474 
	C580.739075,503.089844 581.669312,504.194244 582.648438,505.119629 
	C582.648438,505.119629 582.653687,505.305084 582.809509,505.847900 
	C583.203796,506.238251 583.598145,506.628632 584.164429,507.447754 
	C584.326538,507.721802 584.551636,507.926758 584.994263,508.575500 
	C585.265991,508.792419 585.537659,509.009338 585.875732,509.101746 
M306.917480,519.119812 
	C306.917480,519.119812 306.794830,519.118164 306.945007,519.667908 
	C307.285461,519.815674 307.625916,519.963440 307.970947,520.031860 
	C307.970947,520.031860 307.898041,520.063599 308.348236,520.605774 
	C317.379364,525.150391 326.582001,526.380676 336.015625,522.002747 
	C336.015625,522.002747 336.021271,522.070923 336.716278,521.988525 
	C338.231323,521.082397 339.746399,520.176270 341.200775,519.173645 
	C341.200775,519.173645 341.138733,519.269226 341.740997,519.215759 
	C342.176910,518.815735 342.612823,518.415710 343.623016,517.833618 
	C344.451813,516.760986 345.280579,515.688416 346.741455,514.223328 
	C348.382843,509.957275 351.259125,505.742737 351.439545,501.415710 
	C352.037964,487.066650 351.665558,472.677063 351.665558,458.081909 
	C350.307800,458.081909 349.168732,458.081909 347.349976,457.956390 
	C346.892853,457.997070 346.435699,458.037750 345.189331,457.978577 
	C343.597809,457.978577 342.006317,457.978577 340.146912,457.978577 
	C340.146912,470.445007 340.313110,482.382355 340.057617,494.310638 
	C339.966980,498.542755 338.850098,502.752869 337.756958,507.509949 
	C335.130219,509.404602 332.762634,512.137268 329.830353,513.044067 
	C319.073975,516.370300 311.916168,512.425293 307.259857,500.336212 
	C307.259857,486.296539 307.259857,472.256866 307.259857,458.325775 
	C302.959412,458.325775 299.558960,458.325775 296.121674,458.325775 
	C296.121674,472.418121 296.121674,486.179474 296.007416,500.707062 
	C296.544586,502.830566 297.081757,504.954071 297.778900,507.777649 
	C298.491028,509.226501 299.203186,510.675354 299.939453,512.044495 
	C299.939453,512.044495 299.856232,512.048828 299.971924,512.613403 
	C300.273193,512.812988 300.574432,513.012573 300.941193,513.110474 
	C300.941193,513.110474 300.827972,513.067993 300.908875,513.749207 
	C301.253967,514.032776 301.599030,514.316284 301.821686,514.830322 
	C301.821686,514.830322 302.014282,515.006470 302.158325,515.517273 
	C302.424286,515.742554 302.690247,515.967834 303.066986,516.628540 
	C303.240814,516.908386 303.492401,517.050415 304.168243,517.584778 
	C304.738068,517.810425 305.307922,518.036072 305.882599,518.122131 
	C305.882599,518.122131 305.749573,518.164673 305.853149,518.744324 
	C306.194611,518.908142 306.536102,519.071960 306.917480,519.119812 
M367.183899,467.869995 
	C373.774139,467.943207 380.364410,468.016449 387.401367,468.930695 
	C387.401367,487.121338 387.401367,505.311951 387.401367,523.579956 
	C391.872803,523.579956 395.315002,523.579956 399.288574,523.579956 
	C399.288574,521.574219 399.288544,519.783264 399.288605,517.992249 
	C399.289001,504.368378 399.290649,490.744507 399.289429,477.120636 
	C399.288696,469.150604 399.286652,469.150604 407.935974,468.239380 
	C411.908447,468.239380 415.880951,468.239380 420.100952,468.239380 
	C420.100952,464.668335 420.100952,461.451111 420.100952,457.995911 
	C402.803680,457.995911 385.829254,457.984589 368.855011,458.037048 
	C368.170776,458.039154 367.488342,458.644226 366.521484,459.651825 
	C366.622559,462.111084 366.723633,464.570343 367.183899,467.869995 
M90.184853,197.495544 
	C90.161636,231.643326 90.138420,265.791107 89.960510,300.709167 
	C90.012383,301.489410 90.064255,302.269653 90.031578,303.679901 
	C90.060295,304.101746 90.089012,304.523590 89.960930,305.878265 
	C90.018967,329.261536 90.077003,352.644836 90.038277,376.955688 
	C90.087418,382.624695 90.136551,388.293701 90.033600,394.725403 
	C90.090706,395.496826 90.147812,396.268250 90.099609,397.813446 
	C90.099609,399.894775 90.099609,401.976135 90.099609,404.243378 
	C134.138382,404.243378 177.506760,404.243378 221.422546,404.243378 
	C221.422546,390.985260 221.422546,378.037201 221.204834,364.335480 
	C219.393387,364.226410 217.582031,364.023956 215.770493,364.022339 
	C190.324097,363.999481 164.877670,364.004028 139.431259,364.001892 
	C137.690659,364.001740 135.950058,364.001862 134.363403,364.001862 
	C134.011032,358.259735 133.708466,353.329041 133.752289,347.440826 
	C133.752289,297.365082 133.752289,247.289322 133.752289,197.193130 
	C132.345291,197.075684 131.686646,196.969849 131.028778,196.974503 
	C128.031647,196.995682 125.034737,197.047928 121.233543,196.957016 
	C120.150917,197.003067 119.068298,197.049103 117.330986,197.001297 
	C116.892532,197.034821 116.454071,197.068359 115.341736,196.973145 
	C114.888794,197.018753 114.435852,197.064362 113.052536,197.011307 
	C105.695152,197.069977 98.337761,197.128647 90.184853,197.495544 
M436.069214,521.869080 
	C436.635101,522.489075 437.171814,523.609985 437.771820,523.644897 
	C440.875122,523.825806 443.994659,523.729004 447.306274,523.729004 
	C447.306274,501.595093 447.306274,479.922546 447.306274,457.989532 
	C444.036102,457.989532 441.047180,457.870270 438.081635,458.080261 
	C437.407837,458.127930 436.814819,459.316437 436.041656,460.910431 
	C436.095734,480.959259 436.149811,501.008057 436.069214,521.869080 
M389.613159,405.219025 
	C394.321442,411.455200 399.072937,417.659454 403.717987,423.942352 
	C405.731506,426.665802 408.022522,428.067230 411.660156,427.987946 
	C423.643311,427.726807 435.634735,427.857361 447.622711,427.786865 
	C449.111694,427.778107 450.598877,427.464874 453.027039,427.184021 
	C446.703735,419.079620 441.092468,411.904327 435.498749,404.715393 
	C413.741974,376.753998 392.033447,348.754730 370.129028,320.909515 
	C368.847198,319.279999 366.013855,318.086060 363.876740,318.045380 
	C352.560242,317.830139 341.235321,318.034546 329.913727,318.138123 
	C328.679230,318.149414 327.447357,318.446747 325.519073,318.704224 
	C336.717163,334.226562 347.484985,349.152496 357.274658,364.173645 
	C337.531586,364.200623 317.788544,364.227600 297.334290,364.006104 
	C289.530090,362.521973 285.882965,357.213501 284.580475,349.022552 
	C284.586945,335.360382 284.625580,321.698120 284.592133,308.036072 
	C284.546509,289.383270 284.445984,270.730621 284.704742,251.322159 
	C286.451355,241.229385 291.350525,237.015823 301.737213,236.988174 
	C324.385254,236.927856 347.039307,237.261703 369.679108,236.823410 
	C379.749115,236.628448 386.875916,239.529724 389.841278,250.745758 
	C389.953979,267.800476 390.066681,284.855164 390.216339,302.612457 
	C390.792419,303.797211 391.184967,305.123291 391.972076,306.145599 
	C404.267853,322.114594 416.614655,338.044373 429.192047,354.615540 
	C429.773010,355.524994 430.353973,356.434418 430.934937,357.343872 
	C431.262329,357.120361 431.589722,356.896851 431.917114,356.673309 
	C431.917114,355.787476 431.917114,354.901611 432.078613,353.088409 
	C432.026093,325.383484 431.973572,297.678558 432.003113,269.500824 
	C432.003113,269.500824 431.920258,269.028137 432.079987,268.098907 
	C432.079346,258.267334 432.201813,248.433899 432.052307,238.604614 
	C431.746674,218.513657 417.771240,202.028427 397.121216,197.983383 
	C393.323334,197.674896 389.526123,197.108475 385.727478,197.098465 
	C353.459869,197.013519 321.191864,196.986237 288.924316,197.068115 
	C284.641693,197.078979 280.360809,197.799149 275.318359,198.189362 
	C255.830627,203.476257 241.983688,220.061401 241.894302,238.947586 
	C241.843842,275.649689 241.779800,312.351807 241.758072,349.053925 
	C241.754929,354.359558 241.955002,359.665344 241.962387,365.801361 
	C243.757919,384.591675 257.889252,400.343597 276.828247,403.998474 
	C278.868591,404.286377 280.908966,404.574280 283.881012,405.023163 
	C314.595428,404.976929 345.309875,404.930664 376.942749,404.977722 
	C380.975494,404.935028 385.008270,404.892334 389.613159,405.219025 
M607.029602,197.995728 
	C577.704590,198.030945 548.379639,198.066162 518.208679,198.020691 
	C491.643585,200.425110 470.255829,223.578049 470.151917,250.352066 
	C470.024078,283.291565 470.026337,316.232300 470.187500,349.171448 
	C470.212372,354.260498 470.874512,359.473236 472.119049,364.407532 
	C477.429779,385.463013 494.079651,401.348175 513.856873,404.080200 
	C515.485779,404.367920 517.114563,404.905640 518.743530,404.906219 
	C548.152344,404.916443 577.561157,404.861847 607.831482,404.921906 
	C618.484802,404.489380 628.324890,401.374115 636.174316,394.139984 
	C644.604370,386.370758 652.362671,377.869049 660.350952,369.625702 
	C663.447083,366.430634 666.369934,363.067688 669.438354,359.708282 
	C668.752319,358.865753 668.448242,358.170685 667.923767,357.895264 
	C655.547546,351.396210 643.184387,344.868896 630.684875,338.614380 
	C629.640259,338.091644 627.199707,339.010468 626.171631,340.029907 
	C620.975037,345.182983 615.873352,350.452118 611.039429,355.945496 
	C605.222656,362.555817 598.060730,365.256104 589.353699,365.146637 
	C573.360352,364.945557 557.362244,365.157684 541.366394,365.111267 
	C524.012268,365.060944 514.943115,355.987457 514.905701,338.472656 
	C514.852295,313.479095 514.902832,288.484924 515.010010,263.491455 
	C515.080627,247.025589 525.080627,237.102158 541.573242,237.032349 
	C557.069153,236.966766 572.570190,237.236588 588.060059,236.921906 
	C598.405396,236.711746 606.306580,240.733353 612.767578,248.565125 
	C617.212463,253.953033 622.138000,258.941803 626.719360,264.221252 
	C628.597168,266.385193 630.261841,266.537201 632.749084,265.119843 
	C643.732971,258.860687 654.756531,252.663589 665.909546,246.713577 
	C669.515991,244.789627 669.586914,243.305908 666.902161,240.473068 
	C659.345947,232.499847 652.096252,224.236221 644.543884,216.259308 
	C634.599731,205.756241 622.744263,198.923447 607.029602,197.995728 
M499.459717,456.892700 
	C475.048615,455.795624 457.459625,479.921356 467.822266,504.854736 
	C474.221039,520.250732 492.211334,528.117981 508.653687,523.556519 
	C525.579163,518.861023 535.197998,503.672363 532.976074,485.150513 
	C531.127563,469.741486 516.959229,457.453217 499.459717,456.892700 
M200.425354,457.865906 
	C179.166443,452.589050 158.347717,466.625427 157.046417,487.460724 
	C156.180191,501.329956 161.274017,512.789307 173.513397,519.920898 
	C185.550842,526.934875 198.092209,526.651733 210.032974,519.462280 
	C222.524155,511.941376 226.641968,500.072632 225.218155,486.203125 
	C223.711121,471.522858 214.987350,462.523712 200.425354,457.865906 
M666.402893,467.819275 
	C667.016541,466.568787 667.630249,465.318329 668.289917,463.974182 
	C657.237610,457.020538 646.216248,454.150513 634.290649,459.688232 
	C627.345032,462.913483 623.571716,468.562653 623.539978,476.288727 
	C623.507812,484.119537 627.449768,489.631226 634.594971,492.529358 
	C638.881104,494.267822 643.477783,495.229614 647.904236,496.637115 
	C650.263000,497.387238 652.735535,498.035950 654.844177,499.266174 
	C660.091553,502.327698 660.556213,508.283630 655.297546,511.279266 
	C652.085022,513.109375 647.502991,514.179077 643.979858,513.448853 
	C638.182068,512.247070 632.744385,509.308350 626.712280,506.927155 
	C625.211548,508.923370 623.272522,511.502533 621.254639,514.186584 
	C630.765381,522.813293 641.187683,526.530518 653.351868,523.911926 
	C660.268738,522.422913 666.154419,519.133240 669.039124,512.136353 
	C673.370300,501.631165 668.469971,491.424316 657.554810,487.966522 
	C651.405212,486.018433 645.012268,484.555298 639.229248,481.817017 
	C633.911133,479.298828 634.117737,472.886444 639.205322,469.901611 
	C641.118530,468.779205 643.686340,467.794098 645.754883,468.100891 
	C651.687683,468.980835 657.517700,470.553680 663.734558,471.930969 
	C664.203003,471.224548 665.119263,469.842896 666.402893,467.819275 
M112.697395,470.136780 
	C121.480141,465.123718 129.289276,469.184906 137.292542,472.936127 
	C139.013443,470.090820 140.691254,467.316742 142.330811,464.605957 
	C132.717499,456.587921 118.817818,454.561829 108.377922,459.640137 
	C101.112778,463.174133 97.495995,468.937134 97.783409,477.262085 
	C98.054787,485.122742 102.175644,490.085846 109.018883,492.767670 
	C113.931725,494.692963 119.266441,495.511993 124.305321,497.154724 
	C128.460846,498.509491 132.717331,500.290161 132.895126,505.598846 
	C133.032425,509.698151 128.819489,513.457214 122.991905,513.582275 
	C118.655502,513.675232 114.141701,512.657959 109.979111,511.300507 
	C106.958504,510.315460 104.383240,507.964844 101.364075,506.069122 
	C99.265106,508.801270 97.273415,511.393768 95.327576,513.926575 
	C104.913635,524.246582 120.436623,527.575134 132.638016,522.180359 
	C140.592621,518.663208 145.116898,511.719086 144.594528,503.828461 
	C144.051682,495.628479 139.603775,490.454102 130.679886,487.704376 
	C125.295097,486.045197 119.703560,484.883667 114.553185,482.683319 
	C108.803009,480.226746 108.166306,475.794373 112.697395,470.136780 
M253.981094,467.535187 
	C253.981094,464.428436 253.981094,461.321686 253.981094,458.202087 
	C249.778351,458.202087 246.196747,458.202087 242.543030,458.202087 
	C242.543030,480.179596 242.543030,501.870270 242.543030,523.683594 
	C256.545288,523.683594 270.157837,523.683594 283.950500,523.683594 
	C283.950500,520.110352 283.950500,516.730469 283.950500,512.876587 
	C273.848022,512.876587 264.096588,512.876587 253.980667,512.876587 
	C253.980667,497.775848 253.980667,483.149872 253.981094,467.535187 
z"/>
<path fill="#5D9796" opacity="1.000000" stroke="none" 
	d="
M284.383911,349.928894 
	C285.882965,357.213501 289.530090,362.521973 297.805847,364.500610 
	C299.483948,365.329468 300.689453,365.950806 301.897156,365.955048 
	C319.685242,366.017700 337.473663,366.017548 355.261749,365.956543 
	C356.489197,365.952332 357.714600,365.349121 359.228790,365.192688 
	C368.684143,377.595459 377.851685,389.830078 386.955139,402.385498 
	C385.044495,402.808624 383.157013,402.708160 381.362671,403.069702 
	C379.535522,403.437836 377.799957,404.260681 376.024292,404.884399 
	C345.309875,404.930664 314.595428,404.976929 283.237335,404.635162 
	C280.419769,404.105682 278.245911,403.964172 276.072021,403.822693 
	C257.889252,400.343597 243.757919,384.591675 242.293335,365.083588 
	C242.746170,363.719604 242.974472,363.073425 242.974762,362.427155 
	C242.992355,322.198242 242.999664,281.969360 242.952835,241.740494 
	C242.951401,240.502090 242.369644,239.264374 242.058441,238.026337 
	C241.983688,220.061401 255.830627,203.476257 276.014282,198.447510 
	C277.360748,198.806030 278.011200,198.993958 278.661743,198.994202 
	C317.173431,199.008957 355.685120,199.016235 394.196777,198.973282 
	C395.444946,198.971893 396.692535,198.442551 397.940399,198.159332 
	C417.771240,202.028427 431.746674,218.513657 432.052307,238.604614 
	C432.201813,248.433899 432.079346,258.267334 431.844543,268.647675 
	C431.713074,269.455505 431.817047,269.714569 431.921021,269.973633 
	C431.973572,297.678558 432.026093,325.383484 431.627258,353.540497 
	C430.433807,353.989441 429.691711,353.986328 428.949646,353.983185 
	C416.614655,338.044373 404.267853,322.114594 391.972076,306.145599 
	C391.184967,305.123291 390.792419,303.797211 390.462585,301.951904 
	C390.801086,284.980164 390.912140,268.669006 390.933380,252.357727 
	C390.934509,251.492737 390.176758,250.626770 389.772339,249.761261 
	C386.875916,239.529724 379.749115,236.628448 369.679108,236.823410 
	C347.039307,237.261703 324.385254,236.927856 301.737213,236.988174 
	C291.350525,237.015823 286.451355,241.229385 284.209778,251.855225 
	C283.476501,253.314926 283.031067,254.241287 283.029968,255.168213 
	C282.993073,285.471191 282.981964,315.774231 283.057068,346.077057 
	C283.060242,347.362091 283.922089,348.644989 284.383911,349.928894 
z"/>
<path fill="#E2C276" opacity="1.000000" stroke="none" 
	d="
M513.041809,403.917572 
	C494.079651,401.348175 477.429779,385.463013 472.119049,364.407532 
	C470.874512,359.473236 470.212372,354.260498 470.187500,349.171448 
	C470.026337,316.232300 470.024078,283.291565 470.151917,250.352066 
	C470.255829,223.578049 491.643585,200.425110 518.934082,198.337311 
	C520.305969,198.770294 520.952454,198.988037 521.598999,198.988464 
	C549.147827,199.007004 576.696716,199.018082 604.245483,198.968719 
	C605.482727,198.966507 606.718933,198.394501 607.955627,198.087891 
	C622.744263,198.923447 634.599731,205.756241 644.543884,216.259308 
	C652.096252,224.236221 659.345947,232.499847 666.902161,240.473068 
	C669.586914,243.305908 669.515991,244.789627 665.909546,246.713577 
	C654.756531,252.663589 643.732971,258.860687 632.749084,265.119843 
	C630.261841,266.537201 628.597168,266.385193 626.719360,264.221252 
	C622.138000,258.941803 617.212463,253.953033 612.767578,248.565125 
	C606.306580,240.733353 598.405396,236.711746 588.060059,236.921906 
	C572.570190,237.236588 557.069153,236.966766 541.573242,237.032349 
	C525.080627,237.102158 515.080627,247.025589 515.010010,263.491455 
	C514.902832,288.484924 514.852295,313.479095 514.905701,338.472656 
	C514.943115,355.987457 524.012268,365.060944 541.366394,365.111267 
	C557.362244,365.157684 573.360352,364.945557 589.353699,365.146637 
	C598.060730,365.256104 605.222656,362.555817 611.039429,355.945496 
	C615.873352,350.452118 620.975037,345.182983 626.171631,340.029907 
	C627.199707,339.010468 629.640259,338.091644 630.684875,338.614380 
	C643.184387,344.868896 655.547546,351.396210 667.923767,357.895264 
	C668.448242,358.170685 668.752319,358.865753 669.438354,359.708282 
	C666.369934,363.067688 663.447083,366.430634 660.350952,369.625702 
	C652.362671,377.869049 644.604370,386.370758 636.174316,394.139984 
	C628.324890,401.374115 618.484802,404.489380 607.297668,404.493408 
	C605.232971,403.709930 603.702698,403.048706 602.171021,403.045288 
	C574.034729,402.982086 545.898254,402.982880 517.761841,403.035889 
	C516.187988,403.038879 514.615112,403.610565 513.041809,403.917572 
z"/>
<path fill="#5D9796" opacity="1.000000" stroke="none" 
	d="
M117.985672,197.095154 
	C119.068298,197.049103 120.150917,197.003067 121.929504,197.303864 
	C123.272865,197.770798 123.917244,197.974594 124.568146,197.998184 
	C131.994629,198.267258 131.994537,198.259918 131.995117,205.535553 
	C131.998672,250.975937 131.983032,296.416351 132.065506,341.856598 
	C132.069473,344.037994 132.939285,346.217804 133.405884,348.398346 
	C133.708466,353.329041 134.011032,358.259735 134.363403,364.001862 
	C135.950058,364.001862 137.690659,364.001740 139.431259,364.001892 
	C164.877670,364.004028 190.324097,363.999481 215.770493,364.022339 
	C217.582031,364.023956 219.393387,364.226410 220.979416,364.859314 
	C220.505005,366.968872 220.052582,368.553040 220.040573,370.140503 
	C219.971329,379.299561 219.746475,388.469879 220.114944,397.614594 
	C220.300125,402.210541 218.662048,403.104675 214.417160,403.087952 
	C175.447906,402.934387 136.477814,402.997528 97.507965,402.983490 
	C95.881226,402.982910 94.254539,402.843781 93.176643,402.794342 
	C92.005447,400.526337 91.105186,398.783020 90.204926,397.039673 
	C90.147812,396.268250 90.090706,395.496826 90.487923,394.240112 
	C91.113441,388.042145 91.297401,382.329712 91.399559,376.615845 
	C91.402916,376.427521 90.575302,376.224335 90.135040,376.028107 
	C90.077003,352.644836 90.018967,329.261536 90.250580,305.276855 
	C90.398865,304.133575 90.257500,303.591736 90.116135,303.049896 
	C90.064255,302.269653 90.012383,301.489410 90.315231,300.021545 
	C90.780716,297.518799 90.986313,295.703705 90.988129,293.888458 
	C91.019768,262.270294 91.026413,230.652161 91.503098,199.018494 
	C98.015396,198.999817 104.066643,199.104950 110.108032,198.908005 
	C111.417809,198.865311 112.692215,197.737823 113.982910,197.109970 
	C114.435852,197.064362 114.888794,197.018753 115.711403,197.323792 
	C116.403351,197.972305 116.725624,198.270187 117.047905,198.568069 
	C117.360489,198.077103 117.673080,197.586121 117.985672,197.095154 
z"/>
<path fill="#E1C276" opacity="1.000000" stroke="none" 
	d="
M387.019196,402.064667 
	C377.851685,389.830078 368.684143,377.595459 359.140961,365.017212 
	C358.594116,364.475494 358.423279,364.277100 358.252808,364.078430 
	C347.484985,349.152496 336.717163,334.226562 325.519073,318.704224 
	C327.447357,318.446747 328.679230,318.149414 329.913727,318.138123 
	C341.235321,318.034546 352.560242,317.830139 363.876740,318.045380 
	C366.013855,318.086060 368.847198,319.279999 370.129028,320.909515 
	C392.033447,348.754730 413.741974,376.753998 435.498749,404.715393 
	C441.092468,411.904327 446.703735,419.079620 453.027039,427.184021 
	C450.598877,427.464874 449.111694,427.778107 447.622711,427.786865 
	C435.634735,427.857361 423.643311,427.726807 411.660156,427.987946 
	C408.022522,428.067230 405.731506,426.665802 403.717987,423.942352 
	C399.072937,417.659454 394.321442,411.455200 389.268982,404.742310 
	C388.289581,403.531921 387.654388,402.798309 387.019196,402.064667 
z"/>
<path fill="#5A9291" opacity="1.000000" stroke="none" 
	d="
M499.928589,456.893860 
	C516.959229,457.453217 531.127563,469.741486 532.976074,485.150513 
	C535.197998,503.672363 525.579163,518.861023 508.653687,523.556519 
	C492.211334,528.117981 474.221039,520.250732 467.822266,504.854736 
	C457.459625,479.921356 475.048615,455.795624 499.928589,456.893860 
M509.314331,469.892242 
	C494.742126,463.505127 479.980804,471.013672 477.261292,486.196472 
	C475.482330,496.128357 479.590607,505.795563 487.735931,510.844208 
	C495.151367,515.440369 505.706116,514.955505 512.669006,509.698792 
	C525.648254,499.900024 524.251404,479.310272 509.314331,469.892242 
z"/>
<path fill="#5A9291" opacity="1.000000" stroke="none" 
	d="
M200.835617,457.941467 
	C214.987350,462.523712 223.711121,471.522858 225.218155,486.203125 
	C226.641968,500.072632 222.524155,511.941376 210.032974,519.462280 
	C198.092209,526.651733 185.550842,526.934875 173.513397,519.920898 
	C161.274017,512.789307 156.180191,501.329956 157.046417,487.460724 
	C158.347717,466.625427 179.166443,452.589050 200.835617,457.941467 
M207.703293,507.168427 
	C215.972260,496.872559 215.960571,483.211212 207.675232,474.332092 
	C199.528687,465.601807 185.076035,465.187134 176.121704,473.426819 
	C166.844910,481.963226 166.501923,497.753967 175.387939,507.210632 
	C183.845856,516.211731 197.707794,516.423340 207.703293,507.168427 
z"/>
<path fill="#5A9492" opacity="1.000000" stroke="none" 
	d="
M592.773193,518.098633 
	C592.485352,517.980164 592.257996,517.789612 592.029480,516.939209 
	C590.450256,514.646362 588.932617,512.941162 587.414917,511.235992 
	C587.185303,511.158478 587.015930,511.011505 586.803467,510.330872 
	C586.384705,509.635376 586.069336,509.404144 585.753906,509.172913 
	C585.753906,509.172913 585.875732,509.101746 585.785034,508.896271 
	C585.409485,508.481415 585.124573,508.272034 584.839661,508.062653 
	C584.551636,507.926758 584.326538,507.721802 584.048462,506.925171 
	C583.506226,506.036774 583.079956,505.670929 582.653687,505.305084 
	C582.653687,505.305084 582.648438,505.119629 582.707764,504.856689 
	C581.720459,503.523071 580.673889,502.452393 579.627258,501.381744 
	C579.627258,501.381744 579.833435,501.294220 579.720032,501.033600 
	C579.309082,500.598907 579.011536,500.424835 578.713989,500.250763 
	C578.713989,500.250763 578.783752,500.258270 578.787109,499.916840 
	C578.155518,499.077332 577.520569,498.579254 576.885559,498.081207 
	C576.885559,498.081207 576.974731,498.000702 576.938721,497.733795 
	C576.480164,497.085968 576.057495,496.705048 575.634888,496.324127 
	C575.634888,496.324127 575.765503,496.146667 575.692688,495.954834 
	C575.314209,495.600952 575.008606,495.438873 574.702942,495.276764 
	C574.702942,495.276764 574.664246,495.097687 574.723633,494.845184 
	C574.160950,494.080475 573.538879,493.568237 572.916748,493.056030 
	C572.916748,493.056030 572.991943,493.002869 572.951050,492.724701 
	C572.476929,492.092987 572.043823,491.739471 571.610657,491.385925 
	C571.610657,491.385925 571.569702,491.328461 571.650024,490.974609 
	C570.785217,489.772797 569.840149,488.924805 568.895020,488.076813 
	C568.895020,488.076813 568.978638,488.000763 568.933594,487.732178 
	C568.462097,487.092896 568.035583,486.722198 567.609070,486.351532 
	C567.609070,486.351532 567.659546,486.174255 567.698486,485.900269 
	C567.099854,485.133240 566.462158,484.640228 565.824524,484.147217 
	C565.824524,484.147217 565.931641,483.990356 565.887817,483.748840 
	C565.245605,483.002594 564.647156,482.497864 564.048706,481.993164 
	C564.048706,481.993164 563.845886,481.811188 563.764282,481.350342 
	C563.340088,480.639221 562.997498,480.388947 562.654846,480.138733 
	C562.126099,479.955536 561.597351,479.772339 560.689819,480.135193 
	C560.205078,492.790131 560.006165,504.899353 560.053589,517.007629 
	C560.066650,520.348816 559.671021,522.172424 555.560303,522.145081 
	C551.632935,522.118958 550.904968,520.655823 550.937195,517.136536 
	C551.090698,500.364502 550.955017,483.590118 551.028748,466.817017 
	C551.066345,458.267731 549.620178,459.017670 559.109741,459.045044 
	C560.743652,460.986755 562.377625,462.928497 564.161194,465.477356 
	C564.635071,466.312012 564.959290,466.539551 565.283508,466.767059 
	C565.283508,466.767059 565.036621,466.855988 565.191711,467.062561 
	C565.647705,467.446228 565.948547,467.623352 566.249451,467.800476 
	C566.249451,467.800476 566.046997,467.785217 566.115234,468.111664 
	C566.795227,468.955078 567.406860,469.472046 568.018555,469.989014 
	C568.018555,469.989014 568.000000,470.000000 568.035095,470.299744 
	C568.499573,470.960876 568.928955,471.322296 569.358337,471.683716 
	C569.358337,471.683716 569.365234,471.884979 569.307434,472.133240 
	C569.876404,472.889130 570.503113,473.396790 571.129822,473.904480 
	C571.129822,473.904480 571.035400,473.998718 571.073120,474.259125 
	C571.551208,474.811401 571.991638,475.103271 572.432068,475.395142 
	C572.432068,475.395142 572.548645,475.518066 572.506592,475.854736 
	C572.760925,476.332581 573.057373,476.473694 573.353821,476.614807 
	C573.353821,476.614807 573.368225,476.681763 573.311646,477.029907 
	C573.896057,477.867615 574.537048,478.357178 575.178101,478.846771 
	C575.178101,478.846771 575.065735,479.011322 575.116943,479.252319 
	C575.776306,479.996216 576.384460,480.499084 576.992615,481.001953 
	C576.992615,481.001953 577.199463,481.176697 577.195679,481.689392 
	C577.858582,482.771118 578.525208,483.340179 579.191895,483.909241 
	C579.811768,484.594727 580.431641,485.280182 581.110107,486.614441 
	C582.149475,488.149445 583.130188,489.035645 584.110901,489.921814 
	C584.110901,489.921814 584.025452,489.998474 584.073303,490.291809 
	C584.604248,490.985809 585.087402,491.386444 585.570496,491.787079 
	C585.807373,491.856506 585.983765,492.000244 586.142944,492.749115 
	C586.834595,493.834045 587.482727,494.388184 588.130920,494.942352 
	C588.456299,495.286865 588.781677,495.631378 589.148926,496.580200 
	C590.579529,498.674072 591.968323,500.163574 593.357117,501.653107 
	C593.357117,501.653107 593.054565,501.880524 593.193115,502.015564 
	C593.841736,502.347107 594.351807,502.543579 594.861938,502.740051 
	C594.939392,502.447052 595.016785,502.154022 595.321228,501.320801 
	C595.700317,500.455231 595.610779,500.200287 595.279663,500.015778 
	C595.223206,486.663635 595.166687,473.311493 595.423401,459.455933 
	C596.157104,458.641998 596.577698,458.331482 596.998230,458.020935 
	C597.750549,457.993652 598.502869,457.966370 599.915588,458.240601 
	C603.982117,458.705261 605.179138,460.219879 605.127441,463.860718 
	C604.896179,480.146301 605.026855,496.437012 605.026855,512.725891 
	C605.026855,522.001953 605.026855,522.001953 595.884277,522.051331 
	C595.564697,521.698303 595.245117,521.345276 594.815918,520.451111 
	C594.401733,519.650696 594.097229,519.391357 593.792725,519.132080 
	C593.792725,519.132080 593.888123,519.110229 593.779846,518.897583 
	C593.372131,518.489502 593.072632,518.294067 592.773193,518.098633 
z"/>
<path fill="#5A9291" opacity="1.000000" stroke="none" 
	d="
M666.219177,468.140259 
	C665.119263,469.842896 664.203003,471.224548 663.734558,471.930969 
	C657.517700,470.553680 651.687683,468.980835 645.754883,468.100891 
	C643.686340,467.794098 641.118530,468.779205 639.205322,469.901611 
	C634.117737,472.886444 633.911133,479.298828 639.229248,481.817017 
	C645.012268,484.555298 651.405212,486.018433 657.554810,487.966522 
	C668.469971,491.424316 673.370300,501.631165 669.039124,512.136353 
	C666.154419,519.133240 660.268738,522.422913 653.351868,523.911926 
	C641.187683,526.530518 630.765381,522.813293 621.254639,514.186584 
	C623.272522,511.502533 625.211548,508.923370 626.712280,506.927155 
	C632.744385,509.308350 638.182068,512.247070 643.979858,513.448853 
	C647.502991,514.179077 652.085022,513.109375 655.297546,511.279266 
	C660.556213,508.283630 660.091553,502.327698 654.844177,499.266174 
	C652.735535,498.035950 650.263000,497.387238 647.904236,496.637115 
	C643.477783,495.229614 638.881104,494.267822 634.594971,492.529358 
	C627.449768,489.631226 623.507812,484.119537 623.539978,476.288727 
	C623.571716,468.562653 627.345032,462.913483 634.290649,459.688232 
	C646.216248,454.150513 657.237610,457.020538 668.289917,463.974182 
	C667.630249,465.318329 667.016541,466.568787 666.219177,468.140259 
z"/>
<path fill="#5A9291" opacity="1.000000" stroke="none" 
	d="
M112.378944,470.382812 
	C108.166306,475.794373 108.803009,480.226746 114.553185,482.683319 
	C119.703560,484.883667 125.295097,486.045197 130.679886,487.704376 
	C139.603775,490.454102 144.051682,495.628479 144.594528,503.828461 
	C145.116898,511.719086 140.592621,518.663208 132.638016,522.180359 
	C120.436623,527.575134 104.913635,524.246582 95.327576,513.926575 
	C97.273415,511.393768 99.265106,508.801270 101.364075,506.069122 
	C104.383240,507.964844 106.958504,510.315460 109.979111,511.300507 
	C114.141701,512.657959 118.655502,513.675232 122.991905,513.582275 
	C128.819489,513.457214 133.032425,509.698151 132.895126,505.598846 
	C132.717331,500.290161 128.460846,498.509491 124.305321,497.154724 
	C119.266441,495.511993 113.931725,494.692963 109.018883,492.767670 
	C102.175644,490.085846 98.054787,485.122742 97.783409,477.262085 
	C97.495995,468.937134 101.112778,463.174133 108.377922,459.640137 
	C118.817818,454.561829 132.717499,456.587921 142.330811,464.605957 
	C140.691254,467.316742 139.013443,470.090820 137.292542,472.936127 
	C129.289276,469.184906 121.480141,465.123718 112.378944,470.382812 
z"/>
<path fill="#5A9492" opacity="1.000000" stroke="none" 
	d="
M345.978577,458.078461 
	C346.435699,458.037750 346.892853,457.997070 347.925903,458.322876 
	C348.997467,459.666412 349.982269,460.677887 349.916229,461.615387 
	C348.671783,479.283783 353.411194,497.390533 346.109344,514.615784 
	C345.280579,515.688416 344.451813,516.760986 343.018982,517.952393 
	C341.989563,518.470520 341.564148,518.869873 341.138733,519.269226 
	C341.138733,519.269226 341.200775,519.173645 340.869263,519.154785 
	C339.032288,520.114258 337.526764,521.092590 336.021271,522.070923 
	C336.021271,522.070923 336.015625,522.002747 335.604095,522.010437 
	C332.247833,522.344604 329.250519,523.185730 326.369202,522.891418 
	C320.180450,522.259155 314.051483,521.041565 307.898041,520.063599 
	C307.898041,520.063599 307.970947,520.031860 307.855652,519.822632 
	C307.425140,519.448303 307.109985,519.283264 306.794830,519.118164 
	C306.794830,519.118164 306.917480,519.119812 306.819641,518.900879 
	C306.397736,518.509521 306.073639,518.337097 305.749573,518.164673 
	C305.749573,518.164673 305.882599,518.122131 305.759705,517.882629 
	C305.031799,517.446960 304.426788,517.250793 303.821777,517.054626 
	C303.492401,517.050415 303.240814,516.908386 302.921539,516.164551 
	C302.522156,515.469238 302.268219,515.237854 302.014282,515.006470 
	C302.014282,515.006470 301.821686,514.830322 301.801880,514.389160 
	C301.464081,513.654724 301.146027,513.361328 300.827972,513.067993 
	C300.827972,513.067993 300.941193,513.110474 300.838867,512.891663 
	C300.443115,512.464844 300.149689,512.256836 299.856232,512.048828 
	C299.856232,512.048828 299.939453,512.044495 299.945007,511.703369 
	C299.173340,509.934021 298.396118,508.505798 297.618927,507.077576 
	C297.081757,504.954071 296.544586,502.830566 296.334320,500.015686 
	C296.767792,487.382416 296.993317,475.439636 296.906708,463.499146 
	C296.881500,460.024292 297.928680,458.871521 301.432587,458.907257 
	C304.776642,458.941345 306.144989,459.758331 306.074768,463.384674 
	C305.865845,474.175049 305.939575,484.972778 306.057861,495.765900 
	C306.078308,497.630371 306.856537,499.486542 307.284760,501.346527 
	C311.916168,512.425293 319.073975,516.370300 329.830353,513.044067 
	C332.762634,512.137268 335.130219,509.404602 338.321869,507.161621 
	C339.924957,503.271698 341.747253,499.754578 341.858368,496.184143 
	C342.233521,484.129089 342.001282,472.055115 342.001282,460.663086 
	C343.687378,459.567383 344.832977,458.822937 345.978577,458.078461 
z"/>
<path fill="#5A9492" opacity="1.000000" stroke="none" 
	d="
M253.980881,468.029541 
	C253.980667,483.149872 253.980667,497.775848 253.980667,512.876587 
	C264.096588,512.876587 273.848022,512.876587 283.950500,512.876587 
	C283.950500,516.730469 283.950500,520.110352 283.950500,523.683594 
	C270.157837,523.683594 256.545288,523.683594 242.543030,523.683594 
	C242.543030,501.870270 242.543030,480.179596 242.543030,458.202087 
	C246.196747,458.202087 249.778351,458.202087 253.981094,458.202087 
	C253.981094,461.321686 253.981094,464.428436 253.980881,468.029541 
z"/>
<path fill="#468384" opacity="1.000000" stroke="none" 
	d="
M90.152267,397.426575 
	C91.105186,398.783020 92.005447,400.526337 93.176643,402.794342 
	C94.254539,402.843781 95.881226,402.982910 97.507965,402.983490 
	C136.477814,402.997528 175.447906,402.934387 214.417160,403.087952 
	C218.662048,403.104675 220.300125,402.210541 220.114944,397.614594 
	C219.746475,388.469879 219.971329,379.299561 220.040573,370.140503 
	C220.052582,368.553040 220.505005,366.968872 221.088272,365.236145 
	C221.422546,378.037201 221.422546,390.985260 221.422546,404.243378 
	C177.506760,404.243378 134.138382,404.243378 90.099609,404.243378 
	C90.099609,401.976135 90.099609,399.894775 90.152267,397.426575 
z"/>
<path fill="#4A8B89" opacity="1.000000" stroke="none" 
	d="
M133.579086,347.919586 
	C132.939285,346.217804 132.069473,344.037994 132.065506,341.856598 
	C131.983032,296.416351 131.998672,250.975937 131.995117,205.535553 
	C131.994537,198.259918 131.994629,198.267258 124.568146,197.998184 
	C123.917244,197.974594 123.272865,197.770798 122.331604,197.369858 
	C125.034737,197.047928 128.031647,196.995682 131.028778,196.974503 
	C131.686646,196.969849 132.345291,197.075684 133.752289,197.193130 
	C133.752289,247.289322 133.752289,297.365082 133.579086,347.919586 
z"/>
<path fill="#4A8B89" opacity="1.000000" stroke="none" 
	d="
M407.019623,468.072601 
	C399.286652,469.150604 399.288696,469.150604 399.289429,477.120636 
	C399.290649,490.744507 399.289001,504.368378 399.288605,517.992249 
	C399.288544,519.783264 399.288574,521.574219 399.288574,523.579956 
	C395.315002,523.579956 391.872803,523.579956 387.401367,523.579956 
	C387.401367,505.311951 387.401367,487.121338 387.168579,468.475281 
	C386.935791,468.019897 386.976471,467.960144 387.368927,468.075134 
	C388.175018,469.848724 388.936981,471.505096 388.947754,473.166351 
	C389.042450,487.795624 389.079590,502.426392 388.950409,517.055115 
	C388.918304,520.687439 390.169769,522.003662 393.864716,522.096558 
	C397.797028,522.195435 398.061493,520.224792 398.042175,517.176941 
	C397.950562,502.713898 397.997467,488.249969 398.002930,473.786346 
	C398.005493,466.993317 398.013458,466.992798 405.018616,466.996765 
	C405.683563,466.997131 406.348511,467.009369 407.014099,467.280212 
	C407.016357,467.720428 407.017975,467.896515 407.019623,468.072601 
z"/>
<path fill="#4A8B89" opacity="1.000000" stroke="none" 
	d="
M397.530823,198.071350 
	C396.692535,198.442551 395.444946,198.971893 394.196777,198.973282 
	C355.685120,199.016235 317.173431,199.008957 278.661743,198.994202 
	C278.011200,198.993958 277.360748,198.806030 276.394684,198.448242 
	C280.360809,197.799149 284.641693,197.078979 288.924316,197.068115 
	C321.191864,196.986237 353.459869,197.013519 385.727478,197.098465 
	C389.526123,197.108475 393.323334,197.674896 397.530823,198.071350 
z"/>
<path fill="#3F7D7D" opacity="1.000000" stroke="none" 
	d="
M558.883057,458.677490 
	C549.620178,459.017670 551.066345,458.267731 551.028748,466.817017 
	C550.955017,483.590118 551.090698,500.364502 550.937195,517.136536 
	C550.904968,520.655823 551.632935,522.118958 555.560303,522.145081 
	C559.671021,522.172424 560.066650,520.348816 560.053589,517.007629 
	C560.006165,504.899353 560.205078,492.790131 560.583618,480.375732 
	C560.856201,494.376495 560.856201,508.682831 560.856201,523.364746 
	C557.295166,523.364746 553.752563,523.364746 549.940796,523.364746 
	C549.940796,501.785736 549.940796,480.200226 549.940796,458.309906 
	C552.846741,458.309906 555.751526,458.309906 558.883057,458.677490 
z"/>
<path fill="#4A8B89" opacity="1.000000" stroke="none" 
	d="
M284.482178,349.475708 
	C283.922089,348.644989 283.060242,347.362091 283.057068,346.077057 
	C282.981964,315.774231 282.993073,285.471191 283.029968,255.168213 
	C283.031067,254.241287 283.476501,253.314926 284.041901,252.233093 
	C284.445984,270.730621 284.546509,289.383270 284.592133,308.036072 
	C284.625580,321.698120 284.586945,335.360382 284.482178,349.475708 
z"/>
<path fill="#E0BD68" opacity="1.000000" stroke="none" 
	d="
M513.449341,403.998901 
	C514.615112,403.610565 516.187988,403.038879 517.761841,403.035889 
	C545.898254,402.982880 574.034729,402.982086 602.171021,403.045288 
	C603.702698,403.048706 605.232971,403.709930 606.866943,404.443024 
	C577.561157,404.861847 548.152344,404.916443 518.743530,404.906219 
	C517.114563,404.905640 515.485779,404.367920 513.449341,403.998901 
z"/>
<path fill="#3F7D7D" opacity="1.000000" stroke="none" 
	d="
M436.184570,459.979858 
	C436.814819,459.316437 437.407837,458.127930 438.081635,458.080261 
	C441.047180,457.870270 444.036102,457.989532 447.306274,457.989532 
	C447.306274,479.922546 447.306274,501.595093 447.306274,523.729004 
	C443.994659,523.729004 440.875122,523.825806 437.771820,523.644897 
	C437.171814,523.609985 436.635101,522.489075 436.364563,521.577759 
	C437.113556,521.515320 437.567200,521.744141 438.458069,521.984497 
	C445.987610,521.980530 445.991302,521.980530 445.991943,514.888123 
	C445.993469,498.157227 445.997772,481.426361 445.980194,464.695465 
	C445.978363,462.969208 445.836731,461.243073 445.760223,459.523529 
	C442.765167,459.699768 440.372894,459.840515 437.681305,459.983704 
	C436.982819,459.984039 436.583710,459.981934 436.184570,459.979858 
z"/>
<path fill="#6E9B9A" opacity="1.000000" stroke="none" 
	d="
M596.025269,522.426514 
	C605.026855,522.001953 605.026855,522.001953 605.026855,512.725891 
	C605.026855,496.437012 604.896179,480.146301 605.127441,463.860718 
	C605.179138,460.219879 603.982117,458.705261 600.290161,458.283081 
	C602.116028,458.023987 604.227661,458.023987 606.583191,458.023987 
	C606.583191,479.974579 606.583191,501.535950 606.583191,524.232117 
	C602.963440,523.735046 599.564880,523.268372 596.025269,522.426514 
z"/>
<path fill="#4A8B89" opacity="1.000000" stroke="none" 
	d="
M241.976379,238.486969 
	C242.369644,239.264374 242.951401,240.502090 242.952835,241.740494 
	C242.999664,281.969360 242.992355,322.198242 242.974762,362.427155 
	C242.974472,363.073425 242.746170,363.719604 242.342651,364.668427 
	C241.955002,359.665344 241.754929,354.359558 241.758072,349.053925 
	C241.779800,312.351807 241.843842,275.649689 241.976379,238.486969 
z"/>
<path fill="#4A8B89" opacity="1.000000" stroke="none" 
	d="
M438.020874,521.973022 
	C437.567200,521.744141 437.113556,521.515320 436.431885,521.171631 
	C436.149811,501.008057 436.095734,480.959259 436.113098,460.445129 
	C436.583710,459.981934 436.982819,459.984039 437.688416,460.454407 
	C438.003510,481.272797 438.012207,501.622925 438.020874,521.973022 
z"/>
<path fill="#468384" opacity="1.000000" stroke="none" 
	d="
M357.763733,364.126038 
	C358.423279,364.277100 358.594116,364.475494 358.853119,364.849030 
	C357.714600,365.349121 356.489197,365.952332 355.261749,365.956543 
	C337.473663,366.017548 319.685242,366.017700 301.897156,365.955048 
	C300.689453,365.950806 299.483948,365.329468 298.161438,364.624878 
	C317.788544,364.227600 337.531586,364.200623 357.763733,364.126038 
z"/>
<path fill="#4A8B89" opacity="1.000000" stroke="none" 
	d="
M346.425415,514.419556 
	C353.411194,497.390533 348.671783,479.283783 349.916229,461.615387 
	C349.982269,460.677887 348.997467,459.666412 348.265778,458.385620 
	C349.168732,458.081909 350.307800,458.081909 351.665558,458.081909 
	C351.665558,472.677063 352.037964,487.066650 351.439545,501.415710 
	C351.259125,505.742737 348.382843,509.957275 346.425415,514.419556 
z"/>
<path fill="#3F7D7D" opacity="1.000000" stroke="none" 
	d="
M91.038498,199.034012 
	C91.026413,230.652161 91.019768,262.270294 90.988129,293.888458 
	C90.986313,295.703705 90.780716,297.518799 90.392578,299.636414 
	C90.138420,265.791107 90.161636,231.643326 90.589310,197.649109 
	C91.008682,198.213104 91.023590,198.623566 91.038498,199.034012 
z"/>
<path fill="#4A8B89" opacity="1.000000" stroke="none" 
	d="
M345.583954,458.028503 
	C344.832977,458.822937 343.687378,459.567383 342.001282,460.663086 
	C342.001282,472.055115 342.233521,484.129089 341.858368,496.184143 
	C341.747253,499.754578 339.924957,503.271698 338.544250,506.893127 
	C338.850098,502.752869 339.966980,498.542755 340.057617,494.310638 
	C340.313110,482.382355 340.146912,470.445007 340.146912,457.978577 
	C342.006317,457.978577 343.597809,457.978577 345.583954,458.028503 
z"/>
<path fill="#3F7D7D" opacity="1.000000" stroke="none" 
	d="
M307.272308,500.841370 
	C306.856537,499.486542 306.078308,497.630371 306.057861,495.765900 
	C305.939575,484.972778 305.865845,474.175049 306.074768,463.384674 
	C306.144989,459.758331 304.776642,458.941345 301.432587,458.907257 
	C297.928680,458.871521 296.881500,460.024292 296.906708,463.499146 
	C296.993317,475.439636 296.767792,487.382416 296.391449,499.632568 
	C296.121674,486.179474 296.121674,472.418121 296.121674,458.325775 
	C299.558960,458.325775 302.959412,458.325775 307.259857,458.325775 
	C307.259857,472.256866 307.259857,486.296539 307.272308,500.841370 
z"/>
<path fill="#E0BD68" opacity="1.000000" stroke="none" 
	d="
M607.492615,198.041809 
	C606.718933,198.394501 605.482727,198.966507 604.245483,198.968719 
	C576.696716,199.018082 549.147827,199.007004 521.598999,198.988464 
	C520.952454,198.988037 520.305969,198.770294 519.357056,198.377655 
	C548.379639,198.066162 577.704590,198.030945 607.492615,198.041809 
z"/>
<path fill="#3F7D7D" opacity="1.000000" stroke="none" 
	d="
M407.477783,468.156006 
	C407.017975,467.896515 407.016357,467.720428 407.475555,467.277527 
	C410.091003,467.009674 412.249695,466.924866 414.399323,467.028534 
	C417.171234,467.162170 419.087097,466.928345 419.132904,463.199524 
	C419.180084,459.359955 417.395752,458.943390 414.281250,458.966766 
	C398.868011,459.082550 383.453674,459.043091 367.731079,459.035004 
	C367.216675,458.997192 367.010864,458.982788 366.805054,458.968384 
	C367.488342,458.644226 368.170776,458.039154 368.855011,458.037048 
	C385.829254,457.984589 402.803680,457.995911 420.100952,457.995911 
	C420.100952,461.451111 420.100952,464.668335 420.100952,468.239380 
	C415.880951,468.239380 411.908447,468.239380 407.477783,468.156006 
z"/>
<path fill="#3F7D7D" opacity="1.000000" stroke="none" 
	d="
M389.806824,250.253510 
	C390.176758,250.626770 390.934509,251.492737 390.933380,252.357727 
	C390.912140,268.669006 390.801086,284.980164 390.444092,301.600616 
	C390.066681,284.855164 389.953979,267.800476 389.806824,250.253510 
z"/>
<path fill="#4A8B89" opacity="1.000000" stroke="none" 
	d="
M308.123138,520.334656 
	C314.051483,521.041565 320.180450,522.259155 326.369202,522.891418 
	C329.250519,523.185730 332.247833,522.344604 335.632721,522.029175 
	C326.582001,526.380676 317.379364,525.150391 308.123138,520.334656 
z"/>
<path fill="#4A8B89" opacity="1.000000" stroke="none" 
	d="
M91.503098,199.018494 
	C91.023590,198.623566 91.008682,198.213104 90.987076,197.494995 
	C98.337761,197.128647 105.695152,197.069977 113.517723,197.060638 
	C112.692215,197.737823 111.417809,198.865311 110.108032,198.908005 
	C104.066643,199.104950 98.015396,198.999817 91.503098,199.018494 
z"/>
<path fill="#468384" opacity="1.000000" stroke="none" 
	d="
M90.086655,376.491882 
	C90.575302,376.224335 91.402916,376.427521 91.399559,376.615845 
	C91.297401,382.329712 91.113441,388.042145 90.563965,393.858765 
	C90.136551,388.293701 90.087418,382.624695 90.086655,376.491882 
z"/>
<path fill="#468384" opacity="1.000000" stroke="none" 
	d="
M386.955139,402.385498 
	C387.654388,402.798309 388.289581,403.531921 388.982910,404.557617 
	C385.008270,404.892334 380.975494,404.935028 376.483521,404.931061 
	C377.799957,404.260681 379.535522,403.437836 381.362671,403.069702 
	C383.157013,402.708160 385.044495,402.808624 386.955139,402.385498 
z"/>
<path fill="#3F7D7D" opacity="1.000000" stroke="none" 
	d="
M386.945221,468.054810 
	C380.364410,468.016449 373.774139,467.943207 367.302246,467.437317 
	C367.619171,466.995270 367.817719,466.985870 368.482666,466.988037 
	C374.958252,467.319763 380.967346,467.639954 386.976471,467.960144 
	C386.976471,467.960144 386.935791,468.019897 386.945221,468.054810 
z"/>
<path fill="#4A8B89" opacity="1.000000" stroke="none" 
	d="
M368.016235,466.976501 
	C367.817719,466.985870 367.619171,466.995270 367.122681,467.017120 
	C366.723633,464.570343 366.622559,462.111084 366.663269,459.310089 
	C367.010864,458.982788 367.216675,458.997192 367.717743,459.471985 
	C368.014099,462.280365 368.015167,464.628448 368.016235,466.976501 
z"/>
<path fill="#6E9B9A" opacity="1.000000" stroke="none" 
	d="
M587.550537,511.555420 
	C588.932617,512.941162 590.450256,514.646362 591.961487,516.724426 
	C590.532043,515.356506 589.109131,513.615662 587.550537,511.555420 
z"/>
<path fill="#6E9B9A" opacity="1.000000" stroke="none" 
	d="
M593.264832,501.334717 
	C591.968323,500.163574 590.579529,498.674072 589.233765,496.805817 
	C590.575317,497.956818 591.873962,499.486572 593.264832,501.334717 
z"/>
<path fill="#468384" opacity="1.000000" stroke="none" 
	d="
M276.450134,403.910583 
	C278.245911,403.964172 280.419769,404.105682 282.771484,404.554688 
	C280.908966,404.574280 278.868591,404.286377 276.450134,403.910583 
z"/>
<path fill="#4A8B89" opacity="1.000000" stroke="none" 
	d="
M336.368774,522.029724 
	C337.526764,521.092590 339.032288,520.114258 340.899597,519.203003 
	C339.746399,520.176270 338.231323,521.082397 336.368774,522.029724 
z"/>
<path fill="#6E9B9A" opacity="1.000000" stroke="none" 
	d="
M579.718018,501.683594 
	C580.673889,502.452393 581.720459,503.523071 582.683350,504.946167 
	C581.669312,504.194244 580.739075,503.089844 579.718018,501.683594 
z"/>
<path fill="#4A8B89" opacity="1.000000" stroke="none" 
	d="
M297.698914,507.427612 
	C298.396118,508.505798 299.173340,509.934021 299.932953,511.743225 
	C299.203186,510.675354 298.491028,509.226501 297.698914,507.427612 
z"/>
<path fill="#6E9B9A" opacity="1.000000" stroke="none" 
	d="
M568.999512,488.367249 
	C569.840149,488.924805 570.785217,489.772797 571.614868,490.977478 
	C570.700867,490.442047 569.902466,489.549866 568.999512,488.367249 
z"/>
<path fill="#6E9B9A" opacity="1.000000" stroke="none" 
	d="
M584.027893,489.608215 
	C583.130188,489.035645 582.149475,488.149445 581.198120,486.882263 
	C582.133240,487.432434 583.039062,488.363525 584.027893,489.608215 
z"/>
<path fill="#468384" opacity="1.000000" stroke="none" 
	d="
M429.070862,354.299377 
	C429.691711,353.986328 430.433807,353.989441 431.546509,354.004181 
	C431.917114,354.901611 431.917114,355.787476 431.917114,356.673309 
	C431.589722,356.896851 431.262329,357.120361 430.934937,357.343872 
	C430.353973,356.434418 429.773010,355.524994 429.070862,354.299377 
z"/>
<path fill="#6E9B9A" opacity="1.000000" stroke="none" 
	d="
M572.993164,493.341431 
	C573.538879,493.568237 574.160950,494.080475 574.726440,494.937012 
	C574.136414,494.729858 573.603027,494.178345 572.993164,493.341431 
z"/>
<path fill="#6E9B9A" opacity="1.000000" stroke="none" 
	d="
M588.039673,494.639954 
	C587.482727,494.388184 586.834595,493.834045 586.197327,492.914734 
	C586.788269,493.145569 587.368347,493.741547 588.039673,494.639954 
z"/>
<path fill="#6E9B9A" opacity="1.000000" stroke="none" 
	d="
M575.083618,478.574402 
	C574.537048,478.357178 573.896057,477.867615 573.345886,477.030212 
	C573.954224,477.222260 574.471619,477.762177 575.083618,478.574402 
z"/>
<path fill="#6E9B9A" opacity="1.000000" stroke="none" 
	d="
M576.958496,498.369324 
	C577.520569,498.579254 578.155518,499.077332 578.745117,499.921661 
	C578.143616,499.731079 577.587585,499.194244 576.958496,498.369324 
z"/>
<path fill="#6E9B9A" opacity="1.000000" stroke="none" 
	d="
M565.911987,484.421814 
	C566.462158,484.640228 567.099854,485.133240 567.642334,485.973328 
	C567.031311,485.779053 566.515381,485.237762 565.911987,484.421814 
z"/>
<path fill="#6E9B9A" opacity="1.000000" stroke="none" 
	d="
M579.087280,483.607300 
	C578.525208,483.340179 577.858582,482.771118 577.223267,481.821899 
	C577.830627,482.062988 578.406616,482.684204 579.087280,483.607300 
z"/>
<path fill="#4A8B89" opacity="1.000000" stroke="none" 
	d="
M117.658325,197.048218 
	C117.673080,197.586121 117.360489,198.077103 117.047905,198.568069 
	C116.725624,198.270187 116.403351,197.972305 116.048340,197.388153 
	C116.454071,197.068359 116.892532,197.034821 117.658325,197.048218 
z"/>
<path fill="#6E9B9A" opacity="1.000000" stroke="none" 
	d="
M571.052307,473.622375 
	C570.503113,473.396790 569.876404,472.889130 569.329651,472.035034 
	C569.931396,472.239136 570.453064,472.789734 571.052307,473.622375 
z"/>
<path fill="#6E9B9A" opacity="1.000000" stroke="none" 
	d="
M567.937256,469.703613 
	C567.406860,469.472046 566.795227,468.955078 566.215942,468.098785 
	C566.784241,468.312408 567.320129,468.865326 567.937256,469.703613 
z"/>
<path fill="#6E9B9A" opacity="1.000000" stroke="none" 
	d="
M564.141357,482.269287 
	C564.647156,482.497864 565.245605,483.002594 565.847717,483.834778 
	C565.312256,483.623322 564.773132,483.084381 564.141357,482.269287 
z"/>
<path fill="#6E9B9A" opacity="1.000000" stroke="none" 
	d="
M576.900208,480.722290 
	C576.384460,480.499084 575.776306,479.996216 575.160767,479.163025 
	C575.704834,479.369385 576.256287,479.906006 576.900208,480.722290 
z"/>
<path fill="#6E9B9A" opacity="1.000000" stroke="none" 
	d="
M594.625122,502.534119 
	C594.351807,502.543579 593.841736,502.347107 593.342529,501.906128 
	C593.698425,501.883789 594.043396,502.105988 594.625122,502.534119 
z"/>
<path fill="#6E9B9A" opacity="1.000000" stroke="none" 
	d="
M596.686707,457.980621 
	C596.577698,458.331482 596.157104,458.641998 595.469666,458.991516 
	C595.593567,458.667114 595.984375,458.303711 596.686707,457.980621 
z"/>
<path fill="#6E9B9A" opacity="1.000000" stroke="none" 
	d="
M582.731567,505.576477 
	C583.079956,505.670929 583.506226,506.036774 583.962463,506.710785 
	C583.598145,506.628632 583.203796,506.238251 582.731567,505.576477 
z"/>
<path fill="#4A8B89" opacity="1.000000" stroke="none" 
	d="
M303.994995,517.319702 
	C304.426788,517.250793 305.031799,517.446960 305.757263,517.952393 
	C305.307922,518.036072 304.738068,517.810425 303.994995,517.319702 
z"/>
<path fill="#4A8B89" opacity="1.000000" stroke="none" 
	d="
M341.439880,519.242493 
	C341.564148,518.869873 341.989563,518.470520 342.731873,518.043457 
	C342.612823,518.415710 342.176910,518.815735 341.439880,519.242493 
z"/>
<path fill="#6E9B9A" opacity="1.000000" stroke="none" 
	d="
M575.708618,496.598297 
	C576.057495,496.705048 576.480164,497.085968 576.907715,497.785217 
	C576.535889,497.693146 576.159119,497.282806 575.708618,496.598297 
z"/>
<path fill="#6E9B9A" opacity="1.000000" stroke="none" 
	d="
M569.281860,471.412628 
	C568.928955,471.322296 568.499573,470.960876 568.041260,470.290527 
	C568.410034,470.368225 568.807678,470.754883 569.281860,471.412628 
z"/>
<path fill="#3F7D7D" opacity="1.000000" stroke="none" 
	d="
M90.073853,303.364899 
	C90.257500,303.591736 90.398865,304.133575 90.328979,304.810425 
	C90.089012,304.523590 90.060295,304.101746 90.073853,303.364899 
z"/>
<path fill="#6E9B9A" opacity="1.000000" stroke="none" 
	d="
M572.335083,475.156189 
	C571.991638,475.103271 571.551208,474.811401 571.105530,474.200867 
	C571.479553,474.227203 571.858887,474.572205 572.335083,475.156189 
z"/>
<path fill="#6E9B9A" opacity="1.000000" stroke="none" 
	d="
M567.676025,486.630859 
	C568.035583,486.722198 568.462097,487.092896 568.905029,487.780914 
	C568.528687,487.702209 568.135803,487.306183 567.676025,486.630859 
z"/>
<path fill="#6E9B9A" opacity="1.000000" stroke="none" 
	d="
M571.691040,491.652710 
	C572.043823,491.739471 572.476929,492.092987 572.924683,492.762390 
	C572.549927,492.692017 572.160706,492.305756 571.691040,491.652710 
z"/>
<path fill="#6E9B9A" opacity="1.000000" stroke="none" 
	d="
M585.440613,491.507782 
	C585.087402,491.386444 584.604248,490.985809 584.101562,490.241882 
	C584.491577,490.341888 584.901184,490.785187 585.440613,491.507782 
z"/>
<path fill="#4A8B89" opacity="1.000000" stroke="none" 
	d="
M300.868408,513.408569 
	C301.146027,513.361328 301.464081,513.654724 301.863098,514.273926 
	C301.599030,514.316284 301.253967,514.032776 300.868408,513.408569 
z"/>
<path fill="#6E9B9A" opacity="1.000000" stroke="none" 
	d="
M593.883789,519.414795 
	C594.097229,519.391357 594.401733,519.650696 594.750610,520.218140 
	C594.521667,520.250061 594.248291,519.973816 593.883789,519.414795 
z"/>
<path fill="#6E9B9A" opacity="1.000000" stroke="none" 
	d="
M565.194336,466.487732 
	C564.959290,466.539551 564.635071,466.312012 564.261292,465.777435 
	C564.509521,465.716370 564.807373,465.962372 565.194336,466.487732 
z"/>
<path fill="#4A8B89" opacity="1.000000" stroke="none" 
	d="
M306.869934,519.393066 
	C307.109985,519.283264 307.425140,519.448303 307.853333,519.862305 
	C307.625916,519.963440 307.285461,519.815674 306.869934,519.393066 
z"/>
<path fill="#6E9B9A" opacity="1.000000" stroke="none" 
	d="
M592.865356,518.357422 
	C593.072632,518.294067 593.372131,518.489502 593.765381,518.944336 
	C593.558655,519.007874 593.258057,518.812012 592.865356,518.357422 
z"/>
<path fill="#468384" opacity="1.000000" stroke="none" 
	d="
M431.962067,269.737244 
	C431.817047,269.714569 431.713074,269.455505 431.764648,269.112305 
	C431.920258,269.028137 432.003113,269.500824 431.962067,269.737244 
z"/>
<path fill="#4A8B89" opacity="1.000000" stroke="none" 
	d="
M305.801361,518.454468 
	C306.073639,518.337097 306.397736,518.509521 306.799713,518.958862 
	C306.536102,519.071960 306.194611,518.908142 305.801361,518.454468 
z"/>
<path fill="#6E9B9A" opacity="1.000000" stroke="none" 
	d="
M566.172729,467.552246 
	C565.948547,467.623352 565.647705,467.446228 565.305542,466.997345 
	C565.541565,466.918396 565.818726,467.111237 566.172729,467.552246 
z"/>
<path fill="#4A8B89" opacity="1.000000" stroke="none" 
	d="
M302.086304,515.261841 
	C302.268219,515.237854 302.522156,515.469238 302.866150,515.946838 
	C302.690247,515.967834 302.424286,515.742554 302.086304,515.261841 
z"/>
<path fill="#6E9B9A" opacity="1.000000" stroke="none" 
	d="
M595.219727,500.257477 
	C595.610779,500.200287 595.700317,500.455231 595.425659,500.878357 
	C595.303040,500.976135 595.159790,500.499176 595.219727,500.257477 
z"/>
<path fill="#4A8B89" opacity="1.000000" stroke="none" 
	d="
M299.914062,512.331116 
	C300.149689,512.256836 300.443115,512.464844 300.806091,512.942505 
	C300.574432,513.012573 300.273193,512.812988 299.914062,512.331116 
z"/>
<path fill="#6E9B9A" opacity="1.000000" stroke="none" 
	d="
M574.775452,495.517059 
	C575.008606,495.438873 575.314209,495.600952 575.633667,496.039703 
	C575.380920,496.130035 575.114441,495.943695 574.775452,495.517059 
z"/>
<path fill="#6E9B9A" opacity="1.000000" stroke="none" 
	d="
M585.837891,509.452698 
	C586.069336,509.404144 586.384705,509.635376 586.756531,510.165771 
	C586.515930,510.220825 586.218872,509.976654 585.837891,509.452698 
z"/>
<path fill="#6E9B9A" opacity="1.000000" stroke="none" 
	d="
M584.916992,508.319092 
	C585.124573,508.272034 585.409485,508.481415 585.751892,508.958557 
	C585.537659,509.009338 585.265991,508.792419 584.916992,508.319092 
z"/>
<path fill="#6E9B9A" opacity="1.000000" stroke="none" 
	d="
M573.303589,476.407959 
	C573.057373,476.473694 572.760925,476.332581 572.546997,475.929169 
	C572.924255,475.743561 573.132202,475.921631 573.303589,476.407959 
z"/>
<path fill="#6E9B9A" opacity="1.000000" stroke="none" 
	d="
M562.779297,480.423706 
	C562.997498,480.388947 563.340088,480.639221 563.747070,481.215210 
	C563.508850,481.263550 563.206299,480.986145 562.779297,480.423706 
z"/>
<path fill="#6E9B9A" opacity="1.000000" stroke="none" 
	d="
M578.778687,500.492554 
	C579.011536,500.424835 579.309082,500.598907 579.609009,501.048523 
	C579.355469,501.127502 579.099426,500.930908 578.778687,500.492554 
z"/>
<path fill="#FAF9F5" opacity="1.000000" stroke="none" 
	d="
M509.653442,470.069611 
	C524.251404,479.310272 525.648254,499.900024 512.669006,509.698792 
	C505.706116,514.955505 495.151367,515.440369 487.735931,510.844208 
	C479.590607,505.795563 475.482330,496.128357 477.261292,486.196472 
	C479.980804,471.013672 494.742126,463.505127 509.653442,470.069611 
z"/>
<path fill="#FAF9F5" opacity="1.000000" stroke="none" 
	d="
M207.449402,507.432312 
	C197.707794,516.423340 183.845856,516.211731 175.387939,507.210632 
	C166.501923,497.753967 166.844910,481.963226 176.121704,473.426819 
	C185.076035,465.187134 199.528687,465.601807 207.675232,474.332092 
	C215.960571,483.211212 215.972260,496.872559 207.449402,507.432312 
z"/>
<path fill="#5A9492" opacity="1.000000" stroke="none" 
	d="
M368.482666,466.988037 
	C368.015167,464.628448 368.014099,462.280365 368.026367,459.495361 
	C383.453674,459.043091 398.868011,459.082550 414.281250,458.966766 
	C417.395752,458.943390 419.180084,459.359955 419.132904,463.199524 
	C419.087097,466.928345 417.171234,467.162170 414.399323,467.028534 
	C412.249695,466.924866 410.091003,467.009674 407.474915,467.013397 
	C406.348511,467.009369 405.683563,466.997131 405.018616,466.996765 
	C398.013458,466.992798 398.005493,466.993317 398.002930,473.786346 
	C397.997467,488.249969 397.950562,502.713898 398.042175,517.176941 
	C398.061493,520.224792 397.797028,522.195435 393.864716,522.096558 
	C390.169769,522.003662 388.918304,520.687439 388.950409,517.055115 
	C389.079590,502.426392 389.042450,487.795624 388.947754,473.166351 
	C388.936981,471.505096 388.175018,469.848724 387.368927,468.075134 
	C380.967346,467.639954 374.958252,467.319763 368.482666,466.988037 
z"/>
<path fill="#5A9492" opacity="1.000000" stroke="none" 
	d="
M438.458069,521.984497 
	C438.012207,501.622925 438.003510,481.272797 437.987732,460.451965 
	C440.372894,459.840515 442.765167,459.699768 445.760223,459.523529 
	C445.836731,461.243073 445.978363,462.969208 445.980194,464.695465 
	C445.997772,481.426361 445.993469,498.157227 445.991943,514.888123 
	C445.991302,521.980530 445.987610,521.980530 438.458069,521.984497 
z"/>
</svg>