<?xml version="1.0" encoding="UTF-8"?>
<svg xmlns="http://www.w3.org/2000/svg" xmlns:xlink="http://www.w3.org/1999/xlink" width="385.058pt" height="488.645pt" viewBox="0 0 385.058 488.645">
<defs>
<clipPath id="clip-0">
<path clip-rule="nonzero" d="M 0 0 L 385.058594 0 L 385.058594 488.644531 L 0 488.644531 Z M 0 0 "/>
</clipPath>
<clipPath id="clip-1">
<path clip-rule="nonzero" d="M 164 96 L 385.058594 96 L 385.058594 488.644531 L 164 488.644531 Z M 164 96 "/>
</clipPath>
</defs>
<g clip-path="url(#clip-0)">
<path fill="none" stroke-width="19.92554" stroke-linecap="round" stroke-linejoin="miter" stroke="rgb(15.684509%, 20.783997%, 57.647705%)" stroke-opacity="1" stroke-miterlimit="10" d="M -0.001875 279.784188 L 3.435625 299.225594 L 6.873125 317.471688 L 10.306719 334.557625 L 13.744219 350.499031 L 17.177813 365.32325 L 20.615313 379.057625 L 24.048906 391.725594 L 27.486406 403.346688 L 30.923906 413.952156 L 34.3575 423.565438 L 37.795 432.206063 L 41.228594 439.905281 L 44.666094 446.682625 L 48.099688 452.565438 L 51.537188 457.57325 L 54.970781 461.737313 L 58.408281 465.081063 L 61.845781 467.624031 L 65.279375 469.397469 L 68.716875 470.420906 L 72.150469 470.717781 L 75.587969 470.319344 L 79.021563 469.245125 L 82.459063 467.518563 L 85.896563 465.167 L 89.330156 462.213875 L 92.767656 458.686531 L 96.20125 454.6045 L 99.63875 449.995125 L 103.072344 444.88575 L 106.509844 439.295906 L 109.947344 433.252938 L 113.380938 426.776375 L 116.818438 419.897469 L 120.252031 412.639656 L 123.689531 405.026375 L 127.123125 397.081063 L 130.560625 388.827156 L 133.994219 380.292 L 137.431719 371.499031 L 140.869219 362.471688 L 144.302813 353.237313 L 147.740313 343.819344 L 151.173906 334.241219 L 154.611406 324.530281 L 158.045 314.706063 L 161.4825 304.795906 L 164.92 294.827156 L 168.353594 284.819344 L 171.791094 274.799813 L 175.224688 264.792 L 178.662188 254.819344 L 182.095781 244.909188 L 185.533281 235.084969 L 188.970781 225.370125 L 192.404375 215.792 L 195.841875 206.374031 L 199.275469 197.139656 L 202.712969 188.112313 L 206.146563 179.319344 L 209.584063 170.780281 L 213.017656 162.526375 L 216.455156 154.581063 L 219.892656 146.963875 L 223.32625 139.702156 L 226.76375 132.82325 L 230.197344 126.346688 L 233.634844 120.299813 L 237.068438 114.709969 L 240.505938 109.596688 L 243.943438 104.983406 L 247.377031 100.901375 L 250.814531 97.370125 L 254.248125 94.417 L 257.685625 92.061531 L 261.119219 90.334969 L 264.556719 89.256844 L 267.990313 88.850594 L 271.427813 89.147469 L 274.865313 90.167 L 278.298906 91.936531 L 281.736406 94.475594 L 285.17 97.815438 L 288.6075 101.975594 L 292.041094 106.983406 L 295.478594 112.858406 L 298.916094 119.631844 L 302.349688 127.327156 L 305.787188 135.963875 L 309.220781 145.57325 L 312.658281 156.170906 L 316.091875 167.792 L 319.529375 180.452156 L 322.962969 194.182625 L 326.400469 209.002938 L 329.837969 224.940438 L 333.271563 242.018563 L 336.709063 260.26075 L 340.142656 279.694344 " transform="matrix(1, 0, 0, -1, 11.955, 482.667)"/>
</g>
<g clip-path="url(#clip-1)">
<path fill="none" stroke-width="7.97021" stroke-linecap="round" stroke-linejoin="miter" stroke="rgb(100%, 0%, 0%)" stroke-opacity="1" stroke-miterlimit="10" d="M 265.084063 -0.00096875 L 269.334063 11.409188 L 273.587969 22.819344 L 277.837969 34.2295 L 282.091875 45.639656 L 286.341875 57.045906 L 290.595781 68.456063 L 294.845781 79.866219 L 299.099688 91.276375 L 303.349688 102.686531 L 307.603594 114.092781 L 311.853594 125.502938 L 316.1075 136.913094 L 320.3575 148.32325 L 324.611406 159.733406 L 328.861406 171.143563 L 333.115313 182.549813 L 337.365313 193.959969 L 341.619219 205.370125 L 345.869219 216.780281 L 350.123125 228.190438 L 354.373125 239.600594 L 358.627031 251.006844 L 362.877031 262.417 L 367.130938 273.827156 " transform="matrix(1, 0, 0, -1, 11.955, 482.667)"/>
</g>
<path fill-rule="nonzero" fill="rgb(15.684509%, 20.783997%, 57.647705%)" fill-opacity="1" stroke-width="0.3985" stroke-linecap="butt" stroke-linejoin="miter" stroke="rgb(15.684509%, 20.783997%, 57.647705%)" stroke-opacity="1" stroke-miterlimit="10" d="M 48.959063 422.655281 C 48.959063 430.909188 42.267656 437.600594 34.017656 437.600594 C 25.76375 437.600594 19.072344 430.909188 19.072344 422.655281 C 19.072344 414.405281 25.76375 407.713875 34.017656 407.713875 C 42.267656 407.713875 48.959063 414.405281 48.959063 422.655281 Z M 48.959063 422.655281 " transform="matrix(1, 0, 0, -1, 11.955, 482.667)"/>
<path fill-rule="nonzero" fill="rgb(15.684509%, 20.783997%, 57.647705%)" fill-opacity="1" stroke-width="0.3985" stroke-linecap="butt" stroke-linejoin="miter" stroke="rgb(15.684509%, 20.783997%, 57.647705%)" stroke-opacity="1" stroke-miterlimit="10" d="M 185.025469 279.784188 C 185.025469 288.038094 178.334063 294.7295 170.080156 294.7295 C 161.82625 294.7295 155.134844 288.038094 155.134844 279.784188 C 155.134844 271.530281 161.82625 264.842781 170.080156 264.842781 C 178.334063 264.842781 185.025469 271.530281 185.025469 279.784188 Z M 185.025469 279.784188 " transform="matrix(1, 0, 0, -1, 11.955, 482.667)"/>
<path fill-rule="nonzero" fill="rgb(15.684509%, 20.783997%, 57.647705%)" fill-opacity="1" stroke-width="0.3985" stroke-linecap="butt" stroke-linejoin="miter" stroke="rgb(15.684509%, 20.783997%, 57.647705%)" stroke-opacity="1" stroke-miterlimit="10" d="M 321.087969 136.913094 C 321.087969 145.167 314.396563 151.858406 306.142656 151.858406 C 297.88875 151.858406 291.20125 145.167 291.20125 136.913094 C 291.20125 128.659188 297.88875 121.967781 306.142656 121.967781 C 314.396563 121.967781 321.087969 128.659188 321.087969 136.913094 Z M 321.087969 136.913094 " transform="matrix(1, 0, 0, -1, 11.955, 482.667)"/>
</svg>
