<?xml version="1.0" encoding="UTF-8" standalone="no"?>
<svg
   width="128.434pt"
   height="126.117pt"
   viewBox="0 0 128.434 126.117"
   version="1.1"
   id="svg24"
   sodipodi:docname="sciml_svg.svg"
   xmlns:inkscape="http://www.inkscape.org/namespaces/inkscape"
   xmlns:sodipodi="http://sodipodi.sourceforge.net/DTD/sodipodi-0.dtd"
   xmlns="http://www.w3.org/2000/svg"
   xmlns:svg="http://www.w3.org/2000/svg">
  <sodipodi:namedview
     id="namedview24"
     pagecolor="#ffffff"
     bordercolor="#000000"
     borderopacity="0.25"
     inkscape:showpageshadow="2"
     inkscape:pageopacity="0.0"
     inkscape:pagecheckerboard="0"
     inkscape:deskcolor="#d1d1d1"
     inkscape:document-units="pt" />
  <defs
     id="defs2">
    <clipPath
       id="clip-0">
      <path
         clip-rule="nonzero"
         d="M 0 9 L 128.433594 9 L 128.433594 117 L 0 117 Z M 0 9 "
         id="path1" />
    </clipPath>
    <clipPath
       id="clip-1">
      <path
         clip-rule="nonzero"
         d="M 0 0 L 128.433594 0 L 128.433594 126.117188 L 0 126.117188 Z M 0 0 "
         id="path2" />
    </clipPath>
  </defs>
  <g
     clip-path="url(#clip-0)"
     id="g3">
    <path
       fill="none"
       stroke-width="1.99255"
       stroke-linecap="butt"
       stroke-linejoin="miter"
       stroke="rgb(100%, 100%, 100%)"
       stroke-opacity="1"
       stroke-miterlimit="10"
       d="M 61.228312 -0.00059375 C 61.228312 14.08925 33.818156 25.511125 0.00175 25.511125 C -33.814656 25.511125 -61.228719 14.08925 -61.228719 -0.00059375 C -61.228719 -14.090437 -33.814656 -25.512312 0.00175 -25.512312 C 33.818156 -25.512312 61.228312 -14.090437 61.228312 -0.00059375 Z M 61.228312 -0.00059375 "
       transform="matrix(1, 0, 0, -1, 64.217, 63.058)"
       id="path3" />
  </g>
  <g
     clip-path="url(#clip-1)"
     id="g5">
    <path
       fill="none"
       stroke-width="1.99255"
       stroke-linecap="butt"
       stroke-linejoin="miter"
       stroke="rgb(100%, 100%, 100%)"
       stroke-opacity="1"
       stroke-miterlimit="10"
       d="M 30.615031 53.02675 C 18.411906 60.069719 -5.18575 42.042375 -22.095906 12.757219 C -39.002156 -16.527937 -42.814656 -45.981062 -30.615438 -53.024031 C -18.412313 -60.070906 5.185344 -42.039656 22.0955 -12.7545 C 39.00175 16.530656 42.818156 45.979875 30.615031 53.02675 Z M 30.615031 53.02675 "
       transform="matrix(1, 0, 0, -1, 64.217, 63.058)"
       id="path4" />
    <path
       fill="none"
       stroke-width="1.99255"
       stroke-linecap="butt"
       stroke-linejoin="miter"
       stroke="rgb(100%, 100%, 100%)"
       stroke-opacity="1"
       stroke-miterlimit="10"
       d="M 30.615031 -53.024031 C 42.818156 -45.981062 39.00175 -16.527937 22.0955 12.757219 C 5.185344 42.042375 -18.412313 60.069719 -30.615438 53.02675 C -42.814656 45.979875 -39.002156 16.530656 -22.095906 -12.7545 C -5.18575 -42.039656 18.411906 -60.070906 30.615031 -53.024031 Z M 30.615031 -53.024031 "
       transform="matrix(1, 0, 0, -1, 64.217, 63.058)"
       id="path5" />
  </g>
  <path
     fill="none"
     stroke-width="1.19553"
     stroke-linecap="butt"
     stroke-linejoin="miter"
     stroke="rgb(16.07666%, 47.451782%, 100%)"
     stroke-opacity="1"
     stroke-miterlimit="10"
     d="M -18.631063 11.097063 L -1.783406 19.522844 "
     transform="matrix(1, 0, 0, -1, 64.217, 63.058)"
     id="path6" />
  <path
     fill="none"
     stroke-width="1.19553"
     stroke-linecap="butt"
     stroke-linejoin="miter"
     stroke="rgb(16.07666%, 47.451782%, 100%)"
     stroke-opacity="1"
     stroke-miterlimit="10"
     d="M -18.631063 9.315813 L -1.783406 0.890031 "
     transform="matrix(1, 0, 0, -1, 64.217, 63.058)"
     id="path7" />
  <path
     fill="none"
     stroke-width="1.19553"
     stroke-linecap="butt"
     stroke-linejoin="miter"
     stroke="rgb(16.07666%, 47.451782%, 100%)"
     stroke-opacity="1"
     stroke-miterlimit="10"
     d="M -19.306844 8.550188 L -1.103719 -18.7545 "
     transform="matrix(1, 0, 0, -1, 64.217, 63.058)"
     id="path8" />
  <path
     fill="none"
     stroke-width="1.19553"
     stroke-linecap="butt"
     stroke-linejoin="miter"
     stroke="rgb(16.07666%, 47.451782%, 100%)"
     stroke-opacity="1"
     stroke-miterlimit="10"
     d="M -19.306844 -8.547469 L -1.103719 18.753313 "
     transform="matrix(1, 0, 0, -1, 64.217, 63.058)"
     id="path9" />
  <path
     fill="none"
     stroke-width="1.19553"
     stroke-linecap="butt"
     stroke-linejoin="miter"
     stroke="rgb(16.07666%, 47.451782%, 100%)"
     stroke-opacity="1"
     stroke-miterlimit="10"
     d="M -18.631063 -9.317 L -1.783406 -0.891219 "
     transform="matrix(1, 0, 0, -1, 64.217, 63.058)"
     id="path10" />
  <path
     fill="none"
     stroke-width="1.19553"
     stroke-linecap="butt"
     stroke-linejoin="miter"
     stroke="rgb(16.07666%, 47.451782%, 100%)"
     stroke-opacity="1"
     stroke-miterlimit="10"
     d="M -18.631063 -11.09825 L -1.783406 -19.520125 "
     transform="matrix(1, 0, 0, -1, 64.217, 63.058)"
     id="path11" />
  <path
     fill="none"
     stroke-width="1.19553"
     stroke-linecap="butt"
     stroke-linejoin="miter"
     stroke="rgb(16.07666%, 47.451782%, 100%)"
     stroke-opacity="1"
     stroke-miterlimit="10"
     d="M 1.783 19.522844 L 18.630656 11.097063 "
     transform="matrix(1, 0, 0, -1, 64.217, 63.058)"
     id="path12" />
  <path
     fill="none"
     stroke-width="1.19553"
     stroke-linecap="butt"
     stroke-linejoin="miter"
     stroke="rgb(16.07666%, 47.451782%, 100%)"
     stroke-opacity="1"
     stroke-miterlimit="10"
     d="M 1.103312 18.753313 L 19.306437 -8.547469 "
     transform="matrix(1, 0, 0, -1, 64.217, 63.058)"
     id="path13" />
  <path
     fill="none"
     stroke-width="1.19553"
     stroke-linecap="butt"
     stroke-linejoin="miter"
     stroke="rgb(16.07666%, 47.451782%, 100%)"
     stroke-opacity="1"
     stroke-miterlimit="10"
     d="M 1.783 0.890031 L 18.630656 9.315813 "
     transform="matrix(1, 0, 0, -1, 64.217, 63.058)"
     id="path14" />
  <path
     fill="none"
     stroke-width="1.19553"
     stroke-linecap="butt"
     stroke-linejoin="miter"
     stroke="rgb(16.07666%, 47.451782%, 100%)"
     stroke-opacity="1"
     stroke-miterlimit="10"
     d="M 1.783 -0.891219 L 18.630656 -9.317 "
     transform="matrix(1, 0, 0, -1, 64.217, 63.058)"
     id="path15" />
  <path
     fill="none"
     stroke-width="1.19553"
     stroke-linecap="butt"
     stroke-linejoin="miter"
     stroke="rgb(16.07666%, 47.451782%, 100%)"
     stroke-opacity="1"
     stroke-miterlimit="10"
     d="M 1.103312 -18.7545 L 19.306437 8.550188 "
     transform="matrix(1, 0, 0, -1, 64.217, 63.058)"
     id="path16" />
  <path
     fill="none"
     stroke-width="1.19553"
     stroke-linecap="butt"
     stroke-linejoin="miter"
     stroke="rgb(16.07666%, 47.451782%, 100%)"
     stroke-opacity="1"
     stroke-miterlimit="10"
     d="M 1.783 -19.520125 L 18.630656 -11.09825 "
     transform="matrix(1, 0, 0, -1, 64.217, 63.058)"
     id="path17" />
  <path
     fill-rule="nonzero"
     fill="rgb(16.07666%, 47.451782%, 100%)"
     fill-opacity="1"
     d="M 46.792969 52.851562 C 46.792969 51.199219 45.457031 49.863281 43.804688 49.863281 C 42.152344 49.863281 40.816406 51.199219 40.816406 52.851562 C 40.816406 54.503906 42.152344 55.839844 43.804688 55.839844 C 45.457031 55.839844 46.792969 54.503906 46.792969 52.851562 Z M 46.792969 52.851562 "
     id="path18" />
  <path
     fill-rule="nonzero"
     fill="rgb(16.07666%, 47.451782%, 100%)"
     fill-opacity="1"
     d="M 46.792969 73.265625 C 46.792969 71.613281 45.457031 70.273438 43.804688 70.273438 C 42.152344 70.273438 40.816406 71.613281 40.816406 73.265625 C 40.816406 74.914062 42.152344 76.253906 43.804688 76.253906 C 45.457031 76.253906 46.792969 74.914062 46.792969 73.265625 Z M 46.792969 73.265625 "
     id="path19" />
  <path
     fill-rule="nonzero"
     fill="rgb(16.07666%, 47.451782%, 100%)"
     fill-opacity="1"
     d="M 67.207031 42.644531 C 67.207031 40.996094 65.867188 39.65625 64.21875 39.65625 C 62.566406 39.65625 61.226562 40.996094 61.226562 42.644531 C 61.226562 44.296875 62.566406 45.632812 64.21875 45.632812 C 65.867188 45.632812 67.207031 44.296875 67.207031 42.644531 Z M 67.207031 42.644531 "
     id="path20" />
  <path
     fill-rule="nonzero"
     fill="rgb(16.07666%, 47.451782%, 100%)"
     fill-opacity="1"
     d="M 67.207031 63.058594 C 67.207031 61.40625 65.867188 60.070312 64.21875 60.070312 C 62.566406 60.070312 61.226562 61.40625 61.226562 63.058594 C 61.226562 64.707031 62.566406 66.046875 64.21875 66.046875 C 65.867188 66.046875 67.207031 64.707031 67.207031 63.058594 Z M 67.207031 63.058594 "
     id="path21" />
  <path
     fill-rule="nonzero"
     fill="rgb(16.07666%, 47.451782%, 100%)"
     fill-opacity="1"
     d="M 67.207031 83.46875 C 67.207031 81.820312 65.867188 80.480469 64.21875 80.480469 C 62.566406 80.480469 61.226562 81.820312 61.226562 83.46875 C 61.226562 85.121094 62.566406 86.460938 64.21875 86.460938 C 65.867188 86.460938 67.207031 85.121094 67.207031 83.46875 Z M 67.207031 83.46875 "
     id="path22" />
  <path
     fill-rule="nonzero"
     fill="rgb(16.07666%, 47.451782%, 100%)"
     fill-opacity="1"
     d="M 87.617188 52.851562 C 87.617188 51.199219 86.28125 49.863281 84.628906 49.863281 C 82.980469 49.863281 81.640625 51.199219 81.640625 52.851562 C 81.640625 54.503906 82.980469 55.839844 84.628906 55.839844 C 86.28125 55.839844 87.617188 54.503906 87.617188 52.851562 Z M 87.617188 52.851562 "
     id="path23" />
  <path
     fill-rule="nonzero"
     fill="rgb(16.07666%, 47.451782%, 100%)"
     fill-opacity="1"
     d="M 87.617188 73.265625 C 87.617188 71.613281 86.28125 70.273438 84.628906 70.273438 C 82.980469 70.273438 81.640625 71.613281 81.640625 73.265625 C 81.640625 74.914062 82.980469 76.253906 84.628906 76.253906 C 86.28125 76.253906 87.617188 74.914062 87.617188 73.265625 Z M 87.617188 73.265625 "
     id="path24" />
</svg>
